<svg class="main-svg" xmlns="http://www.w3.org/2000/svg" xmlns:xlink="http://www.w3.org/1999/xlink" width="1200" height="600" style="" viewBox="0 0 1200 600"><rect x="0" y="0" width="1200" height="600" style="fill: rgb(255, 255, 255); fill-opacity: 1;"/><defs id="defs-b607f1"><g class="clips"><clipPath id="clipb607f1xyplot" class="plotclip"><rect width="1058" height="544"/></clipPath><clipPath class="axesclip" id="clipb607f1x"><rect x="42" y="0" width="1058" height="600"/></clipPath><clipPath class="axesclip" id="clipb607f1y"><rect x="0" y="16" width="1200" height="544"/></clipPath><clipPath class="axesclip" id="clipb607f1xy"><rect x="42" y="16" width="1058" height="544"/></clipPath></g><g class="gradients"/><g class="patterns"/></defs><g class="bglayer"/><g class="layer-below"><g class="imagelayer"/><g class="shapelayer"/></g><g class="cartesianlayer"><g class="subplot xy"><g class="layer-subplot"><g class="shapelayer"/><g class="imagelayer"/></g><g class="minor-gridlayer"><g class="x"/><g class="y"/></g><g class="gridlayer"><g class="x"><path class="xgrid crisp" transform="translate(242.62,0)" d="M0,16v544" style="stroke: rgb(238, 238, 238); stroke-opacity: 1; stroke-width: 1px;"/><path class="xgrid crisp" transform="translate(443.24,0)" d="M0,16v544" style="stroke: rgb(238, 238, 238); stroke-opacity: 1; stroke-width: 1px;"/><path class="xgrid crisp" transform="translate(643.86,0)" d="M0,16v544" style="stroke: rgb(238, 238, 238); stroke-opacity: 1; stroke-width: 1px;"/><path class="xgrid crisp" transform="translate(844.48,0)" d="M0,16v544" style="stroke: rgb(238, 238, 238); stroke-opacity: 1; stroke-width: 1px;"/><path class="xgrid crisp" transform="translate(1045.1,0)" d="M0,16v544" style="stroke: rgb(238, 238, 238); stroke-opacity: 1; stroke-width: 1px;"/></g><g class="y"><path class="ygrid crisp" transform="translate(0,484.6)" d="M42,0h1058" style="stroke: rgb(238, 238, 238); stroke-opacity: 1; stroke-width: 1px;"/><path class="ygrid crisp" transform="translate(0,428.47)" d="M42,0h1058" style="stroke: rgb(238, 238, 238); stroke-opacity: 1; stroke-width: 1px;"/><path class="ygrid crisp" transform="translate(0,372.35)" d="M42,0h1058" style="stroke: rgb(238, 238, 238); stroke-opacity: 1; stroke-width: 1px;"/><path class="ygrid crisp" transform="translate(0,316.22)" d="M42,0h1058" style="stroke: rgb(238, 238, 238); stroke-opacity: 1; stroke-width: 1px;"/><path class="ygrid crisp" transform="translate(0,260.09000000000003)" d="M42,0h1058" style="stroke: rgb(238, 238, 238); stroke-opacity: 1; stroke-width: 1px;"/><path class="ygrid crisp" transform="translate(0,203.97)" d="M42,0h1058" style="stroke: rgb(238, 238, 238); stroke-opacity: 1; stroke-width: 1px;"/><path class="ygrid crisp" transform="translate(0,147.84)" d="M42,0h1058" style="stroke: rgb(238, 238, 238); stroke-opacity: 1; stroke-width: 1px;"/><path class="ygrid crisp" transform="translate(0,91.71)" d="M42,0h1058" style="stroke: rgb(238, 238, 238); stroke-opacity: 1; stroke-width: 1px;"/><path class="ygrid crisp" transform="translate(0,35.59)" d="M42,0h1058" style="stroke: rgb(238, 238, 238); stroke-opacity: 1; stroke-width: 1px;"/></g></g><g class="zerolinelayer"><path class="xzl zl crisp" transform="translate(42,0)" d="M0,16v544" style="stroke: rgb(238, 238, 238); stroke-opacity: 1; stroke-width: 1px;"/><path class="yzl zl crisp" transform="translate(0,540.73)" d="M42,0h1058" style="stroke: rgb(238, 238, 238); stroke-opacity: 1; stroke-width: 1px;"/></g><g class="layer-between"><g class="shapelayer"/><g class="imagelayer"/></g><path class="xlines-below"/><path class="ylines-below"/><g class="overlines-below"/><g class="xaxislayer-below"/><g class="yaxislayer-below"/><g class="overaxes-below"/><g class="plot" transform="translate(42,16)"><g class="scatterlayer mlayer"><g class="trace scatter traceeda639" style="stroke-miterlimit: 2; opacity: 1;"><g class="fills" clip-path="url(#clipb607f1xyplot)"/><g class="errorbars"/><g class="lines"><path class="js-line" style="vector-effect: none; fill: none; stroke: rgb(251, 147, 65); stroke-opacity: 1; stroke-width: 1.5px; opacity: 1;" d="M0,27.2L7.02,211.41L11.03,246.38L28.09,331.76L32.1,336.67L33.1,338.68L38.12,356.71L45.14,363.16L48.15,367.52L57.18,370.23L80.25,389.52L96.3,398.2L115.36,403.59L137.43,410.43L161.5,417.04L169.52,420.22L172.53,418.54L209.65,424.8L210.65,426.4L225.7,432.56L226.7,432.12L236.73,434.79L247.77,436.9L248.77,436.11L262.81,438.79L267.83,442.38L270.84,440.84L273.85,442.92L306.95,449.31L319.99,455.12L331.02,455.95L347.07,462.84L364.13,465.1L385.19,466.06L395.22,471.81L422.31,476.89L442.37,479.2L452.4,482.87L461.43,484.8L468.45,485.04L472.46,488.16L501.55,491.73L502.55,489.77L516.6,493.17L527.63,494.29L530.64,495.34L533.65,494.38L534.65,495.88L538.67,496.25L567.76,499.14L571.77,500.54L572.77,499.33L575.78,500.31L586.82,501.14L606.88,501.45L618.91,504.66L636.97,504.07L656.03,505.97L658.04,507L665.06,505.47L670.07,506.62L712.2,509.02L721.23,508.31L728.25,509.23L737.28,508.77L752.33,509.92L753.33,509.23L762.36,510.04L763.36,509.37L822.54,511.89L862.67,511.99L882.73,512.9L903.8,513.88L910.82,513.15L919.85,513.83L942.92,513.14L955.96,514.35L958.97,513.99L967.99,514.36L998.09,514.74L999.09,515.33L1002.1,513.8" clip-path="url(#clipb607f1xyplot)"/></g><g class="points" clip-path="url(#clipb607f1xyplot)"/><g class="text" clip-path="url(#clipb607f1xyplot)"/></g><g class="trace scatter trace5c448d" style="stroke-miterlimit: 2; opacity: 1;"><g class="fills" clip-path="url(#clipb607f1xyplot)"/><g class="errorbars"/><g class="lines"/><g class="points"><path class="point" transform="translate(1002.1,513.8)" d="M2,0A2,2 0 1,1 0,-2A2,2 0 0,1 2,0Z" style="opacity: 1; stroke-width: 0px; fill: rgb(251, 147, 65); fill-opacity: 1;"/></g><g class="text"/></g></g></g><g class="overplot"/><path class="xlines-above crisp" d="M0,0" style="fill: none;"/><path class="ylines-above crisp" d="M0,0" style="fill: none;"/><g class="overlines-above"/><g class="xaxislayer-above"><g class="xtick"><text text-anchor="middle" x="0" y="585" style="font-family: Roboto, sans-serif; font-size: 12px; fill: rgb(95, 103, 126); fill-opacity: 1; white-space: pre; opacity: 1;" transform="translate(42,0)">0</text></g><g class="xtick"><text text-anchor="middle" x="0" y="585" style="font-family: Roboto, sans-serif; font-size: 12px; fill: rgb(95, 103, 126); fill-opacity: 1; white-space: pre; opacity: 1;" transform="translate(242.62,0)">200</text></g><g class="xtick"><text text-anchor="middle" x="0" y="585" style="font-family: Roboto, sans-serif; font-size: 12px; fill: rgb(95, 103, 126); fill-opacity: 1; white-space: pre; opacity: 1;" transform="translate(443.24,0)">400</text></g><g class="xtick"><text text-anchor="middle" x="0" y="585" style="font-family: Roboto, sans-serif; font-size: 12px; fill: rgb(95, 103, 126); fill-opacity: 1; white-space: pre; opacity: 1;" transform="translate(643.86,0)">600</text></g><g class="xtick"><text text-anchor="middle" x="0" y="585" style="font-family: Roboto, sans-serif; font-size: 12px; fill: rgb(95, 103, 126); fill-opacity: 1; white-space: pre; opacity: 1;" transform="translate(844.48,0)">800</text></g><g class="xtick"><text text-anchor="middle" x="0" y="585" style="font-family: Roboto, sans-serif; font-size: 12px; fill: rgb(95, 103, 126); fill-opacity: 1; white-space: pre; opacity: 1;" transform="translate(1045.1,0)">1000</text></g></g><g class="yaxislayer-above"><g class="ytick"><text text-anchor="end" x="29" y="4.199999999999999" style="font-family: Roboto, sans-serif; font-size: 12px; fill: rgb(95, 103, 126); fill-opacity: 1; white-space: pre; opacity: 1;" transform="translate(0,540.73)">0</text></g><g class="ytick"><text text-anchor="end" x="29" y="4.199999999999999" style="font-family: Roboto, sans-serif; font-size: 12px; fill: rgb(95, 103, 126); fill-opacity: 1; white-space: pre; opacity: 1;" transform="translate(0,484.6)">0.5</text></g><g class="ytick"><text text-anchor="end" x="29" y="4.199999999999999" style="font-family: Roboto, sans-serif; font-size: 12px; fill: rgb(95, 103, 126); fill-opacity: 1; white-space: pre; opacity: 1;" transform="translate(0,428.47)">1</text></g><g class="ytick"><text text-anchor="end" x="29" y="4.199999999999999" style="font-family: Roboto, sans-serif; font-size: 12px; fill: rgb(95, 103, 126); fill-opacity: 1; white-space: pre; opacity: 1;" transform="translate(0,372.35)">1.5</text></g><g class="ytick"><text text-anchor="end" x="29" y="4.199999999999999" style="font-family: Roboto, sans-serif; font-size: 12px; fill: rgb(95, 103, 126); fill-opacity: 1; white-space: pre; opacity: 1;" transform="translate(0,316.22)">2</text></g><g class="ytick"><text text-anchor="end" x="29" y="4.199999999999999" style="font-family: Roboto, sans-serif; font-size: 12px; fill: rgb(95, 103, 126); fill-opacity: 1; white-space: pre; opacity: 1;" transform="translate(0,260.09000000000003)">2.5</text></g><g class="ytick"><text text-anchor="end" x="29" y="4.199999999999999" style="font-family: Roboto, sans-serif; font-size: 12px; fill: rgb(95, 103, 126); fill-opacity: 1; white-space: pre; opacity: 1;" transform="translate(0,203.97)">3</text></g><g class="ytick"><text text-anchor="end" x="29" y="4.199999999999999" style="font-family: Roboto, sans-serif; font-size: 12px; fill: rgb(95, 103, 126); fill-opacity: 1; white-space: pre; opacity: 1;" transform="translate(0,147.84)">3.5</text></g><g class="ytick"><text text-anchor="end" x="29" y="4.199999999999999" style="font-family: Roboto, sans-serif; font-size: 12px; fill: rgb(95, 103, 126); fill-opacity: 1; white-space: pre; opacity: 1;" transform="translate(0,91.71)">4</text></g><g class="ytick"><text text-anchor="end" x="29" y="4.199999999999999" style="font-family: Roboto, sans-serif; font-size: 12px; fill: rgb(95, 103, 126); fill-opacity: 1; white-space: pre; opacity: 1;" transform="translate(0,35.59)">4.5</text></g></g><g class="overaxes-above"/></g></g><g class="polarlayer"/><g class="smithlayer"/><g class="ternarylayer"/><g class="geolayer"/><g class="funnelarealayer"/><g class="pielayer"/><g class="iciclelayer"/><g class="treemaplayer"/><g class="sunburstlayer"/><g class="glimages"/><defs id="topdefs-b607f1"><g class="clips"/></defs><g class="layer-above"><g class="imagelayer"/><g class="shapelayer"/></g><g class="infolayer"><g class="g-gtitle"/><g class="g-xtitle"/><g class="g-ytitle"/></g></svg>